<?xml version="1.0" standalone="no"?>
<!DOCTYPE svg PUBLIC "-//W3C//DTD SVG 20010904//EN"
 "http://www.w3.org/TR/2001/REC-SVG-20010904/DTD/svg10.dtd">
<svg version="1.0" xmlns="http://www.w3.org/2000/svg"
 width="50.000000pt" height="50.000000pt" viewBox="0 0 50.000000 50.000000"
 preserveAspectRatio="xMidYMid meet">

<g transform="translate(0.000000,50.000000) scale(0.100000,-0.100000)"
fill="#000000" stroke="none">
<path d="M130 416 c-19 -7 -45 -27 -57 -45 -21 -31 -53 -147 -53 -194 0 -31
35 -62 88 -78 38 -11 44 -10 56 6 19 26 153 27 172 0 12 -16 18 -17 58 -5 24
7 55 23 67 36 19 20 21 30 15 72 -9 72 -33 145 -56 174 -23 29 -111 59 -118
40 -5 -15 -102 -16 -102 -2 0 13 -26 12 -70 -4z m23 -22 c-40 -17 -57 -41 -22
-30 99 31 139 31 238 0 35 -10 18 13 -22 31 -24 11 -26 13 -7 9 65 -15 90 -55
112 -170 10 -57 10 -66 -7 -83 -25 -29 -85 -47 -96 -30 -5 9 1 17 22 26 16 6
29 17 29 24 0 7 -7 8 -17 4 -108 -46 -158 -46 -265 0 -11 4 -18 3 -18 -4 0 -7
13 -18 29 -24 21 -9 27 -17 22 -26 -11 -17 -71 1 -96 29 -17 18 -17 26 -6 88
17 91 39 133 81 154 19 10 40 18 45 17 6 0 -4 -7 -22 -15z"/>
<path d="M156 274 c-9 -8 -16 -24 -16 -34 0 -22 25 -50 45 -50 20 0 45 28 45
50 0 22 -25 50 -45 50 -7 0 -21 -7 -29 -16z m49 -34 c0 -16 -6 -26 -18 -28
-19 -4 -32 20 -23 44 9 25 41 13 41 -16z"/>
<path d="M286 274 c-9 -8 -16 -24 -16 -34 0 -22 25 -50 45 -50 20 0 45 28 45
50 0 22 -25 50 -45 50 -7 0 -21 -7 -29 -16z m49 -34 c0 -16 -6 -26 -18 -28
-19 -4 -32 20 -23 44 9 25 41 13 41 -16z"/>
</g>
</svg>
